<svg id="Layer_1" data-name="Layer 1" xmlns="http://www.w3.org/2000/svg" viewBox="0 0 1411 207"><defs><style>.cls-1{fill:#1eb2ca;}.cls-2{fill:#146d85;}.cls-3{fill:#ededed;opacity:0.7;isolation:isolate;}</style></defs><title>footer</title><path class="cls-1" d="M900.2,179.9c-45.4-40.2-91.1-71.4-136.4-95.3,52.6,28.9,98.1,62.9,135.7,95.6A4.88,4.88,0,0,1,900.2,179.9Z"/><path class="cls-1" d="M850.4,203c-390.9-191.6-785-34.2-785-34.2.9-.7,1.8-1.4,2.7-2L11.5,207H842.8C845.4,205.7,847.9,204.3,850.4,203Z"/><path class="cls-2" d="M850.4,203c-2.5,1.3-5.1,2.6-7.6,4h549.5c-128.7-65.3-301-106.2-492.2-27.1-.2.1-.5.2-.7.3-37.6-32.7-83.2-66.6-135.7-95.6C594.6-8.5,352.6-49.9,68.1,166.7c-.9.7-1.8,1.4-2.7,2C65.4,168.8,459.5,11.4,850.4,203Z"/><rect class="cls-3" width="1411" height="207"/></svg>