<svg width="105" height="29" viewBox="0 0 105 29" fill="none" xmlns="http://www.w3.org/2000/svg">
<g clip-path="url(#clip0_1036_971)">
<path d="M23.9464 24.0911C24.6983 24.12 25.566 24.1778 26.3757 24.3224L24.5537 20.823C23.8885 20.7941 21.1989 21.1122 20.0132 21.546C17.873 22.2691 15.9642 24.4092 15.9642 24.7852V26.2891C15.9932 26.2312 16.051 26.1734 16.0799 26.1445C16.2534 25.9131 16.4559 25.7396 16.7162 25.5371C18.0755 24.5249 19.7818 24.2068 21.4303 24.12C22.2979 24.0622 23.1077 24.0622 23.9464 24.0911Z" fill="#00AEC7"/>
<path d="M7.34586 24.0911C6.59391 24.12 5.72629 24.1778 4.9165 24.3225L6.73852 20.823C7.43262 20.823 10.1223 21.1122 11.2791 21.5461C13.4192 22.2691 15.328 24.4092 15.328 24.7852V26.2891C15.2991 26.2312 15.2413 26.1734 15.2123 26.1445C15.0388 25.9131 14.8364 25.7396 14.5761 25.5371C13.2168 24.5249 11.5105 24.2068 9.86197 24.12C9.02327 24.0622 8.18456 24.0622 7.34586 24.0911Z" fill="#00AEC7"/>
<path d="M23.6283 11.1345L25.5081 12.7541L27.6193 11.4816L26.6649 13.7663L28.5159 15.3859L26.0576 15.1545L25.1032 17.4393L24.5248 15.0388L22.0665 14.8075L24.2067 13.535L23.6283 11.1345Z" fill="#FFB500"/>
<path d="M9.94874 3.09451V4.97437L11.7129 5.55279L9.94874 6.10228V7.98214L8.84974 6.47825L7.08557 7.02775L8.18456 5.52387L7.08557 4.01998L8.84974 4.5984L9.94874 3.09451Z" fill="#FFB500"/>
<path d="M28.7762 5.0033L28.7473 6.42042L30.0777 6.85423L28.7473 7.25912L28.7184 8.67625L27.9375 7.51941L26.5782 7.95322L27.417 6.82531L26.6072 5.6974L27.9375 6.13121L28.7762 5.0033Z" fill="#FFB500"/>
<path d="M14.229 15.2702C15.5305 12.6095 18.1044 12.0889 19.2324 8.1846C20.3603 4.3092 17.9598 1.96661 17.9598 1.96661C18.4226 6.27582 17.3525 6.76748 13.9109 9.19683C8.58948 12.9565 10.7585 17.4393 13.3614 19.8397C13.506 17.9888 13.6506 16.427 14.229 15.2702Z" fill="#00AEC7"/>
<path d="M20.3024 8.53165C20.1 9.60172 18.9721 11.5105 16.8898 13.506C13.6506 16.5716 14.1423 19.0878 14.3736 20.8809C14.3158 20.5338 14.5761 19.7529 14.6918 19.4348C15.4437 17.3525 15.7908 17.1501 17.3525 15.7908C19.348 14.0555 21.199 11.8575 20.3024 8.53165Z" fill="#FFB500"/>
<path d="M19.6083 14.0844C19.5505 14.8075 18.7696 16.1089 17.179 17.4103C14.7207 19.4059 15.0099 21.7195 15.6751 22.7607C16.4849 18.0177 21.3147 17.8731 19.6083 14.0844Z" fill="#00677F"/>
<path d="M26.8385 22.2401L26.0287 22.0955L27.764 25.4214L26.9542 25.2768C25.8263 25.0744 24.843 24.9298 23.9175 24.8719C22.7318 24.7852 21.7774 24.7852 20.8808 24.9009C19.7529 25.0165 18.7985 25.2768 18.0177 25.7106C17.5549 25.942 17.1789 26.2601 16.8319 26.5783C16.4848 26.8675 16.08 27.041 15.6751 27.0121C15.2702 27.0121 14.8653 26.8675 14.5182 26.5783C14.1423 26.2601 13.7663 25.942 13.3325 25.7106C12.5227 25.3058 11.5972 25.0455 10.4693 24.9009C9.57276 24.8141 8.61837 24.7852 7.43262 24.8719C6.53607 24.9298 5.52384 25.0744 4.39592 25.2768L3.58614 25.4214L5.32139 22.0666L4.51161 22.2112L1.30139 27.1278C1.85089 27.041 2.45823 26.8964 3.09449 26.7518C5.17679 26.2601 7.72182 25.6528 10.7007 25.7974C12.2624 25.8553 13.4771 26.2601 14.1133 26.8675C14.5471 27.2724 14.7785 27.7351 15.6751 27.7929C16.6005 27.7351 16.803 27.2724 17.2368 26.8675C17.902 26.2601 19.0877 25.8553 20.6495 25.7974C23.6283 25.6528 26.1733 26.2891 28.2556 26.7518C28.8919 26.8964 29.4992 27.041 30.0487 27.1278L26.8385 22.2401Z" fill="#00677F"/>
<path d="M47.9796 5.69742V8.4449H37.3078V15.2413H47.2566V17.9888H37.3078V27.3591H34.3579V5.69742H47.9796Z" fill="#00667D"/>
<path d="M69.0919 8.50273L66.6336 10.3826C65.3611 8.76302 63.4234 7.89539 61.3989 7.89539C56.5691 7.89539 53.33 11.7708 53.33 16.7163C53.33 21.3725 56.4824 25.1611 61.3989 25.1611C63.915 25.1611 65.737 24.0911 67.0674 22.2401L69.5546 24.0911C67.8772 26.3469 64.8405 27.8797 61.3411 27.8797C54.3711 27.8797 50.2065 22.0088 50.2065 16.6584C50.2065 10.1223 54.6604 5.11899 61.4857 5.11899C64.5802 5.14791 67.4145 6.33366 69.0919 8.50273Z" fill="#00667D"/>
<path d="M80.2265 5.69742C84.3911 5.69742 87.0229 7.86648 87.0229 11.7708C87.0229 15.6751 84.3333 17.8442 80.2265 17.8442H75.3967V27.3881H72.4468V5.69742H80.2265ZM79.3878 15.2413C82.4245 15.2413 83.9284 14.1423 83.9284 11.7419C83.9284 9.39929 82.3956 8.24245 79.3878 8.24245H75.3967V15.2124H79.3878V15.2413Z" fill="#00667D"/>
<path d="M103.276 7.60619L100.905 9.77526C100.182 8.64734 98.7647 7.86648 97.0294 7.86648C93.7035 7.86648 92.8359 9.94878 92.8359 11.1924C92.8359 13.0144 94.0795 13.9977 96.075 14.634L98.7936 15.5305C101.83 16.5138 103.508 18.1334 103.508 21.199C103.508 25.219 100.355 27.9086 95.9883 27.9086C92.9226 27.9086 90.4933 26.8096 89.0762 24.9009L91.5055 22.8186C92.4599 24.2935 94.1952 25.1322 96.1039 25.1322C98.273 25.1322 100.413 23.744 100.413 21.5171C100.413 20.0132 99.5166 19.0589 96.8848 18.2491L94.9471 17.6128C91.9683 16.6584 89.7124 15.0967 89.7124 11.2213C89.7124 8.35813 92.1707 5.14792 97.0583 5.14792C100.124 5.14792 102.033 6.07339 103.276 7.60619Z" fill="#00667D"/>
</g>
<defs>
<clipPath id="clip0_1036_971">
<rect width="104.52" height="28.73" fill="white"/>
</clipPath>
</defs>
</svg>
