<?xml version="1.0" encoding="utf-8"?>
<!-- Generator: Adobe Illustrator 27.0.1, SVG Export Plug-In . SVG Version: 6.00 Build 0)  -->
<svg version="1.1" id="Layer_2_00000002344107976329194490000013179480377700562051_"
	 xmlns="http://www.w3.org/2000/svg" xmlns:xlink="http://www.w3.org/1999/xlink" x="0px" y="0px" viewBox="0 0 341.8 89"
	 style="enable-background:new 0 0 341.8 89;" xml:space="preserve">
<style type="text/css">
	.st0{fill:#00677F;}
	.st1{fill:#75787B;}
	.st2{fill:#00AEC7;}
	.st3{fill:#FFB500;}
</style>
<g>
	<g>
		<path class="st0" d="M116.4,6v2.3c0,0.4-0.2,0.6-0.6,0.6H104v9.8h9.6c0.4,0,0.6,0.2,0.6,0.6v2.3c0,0.4-0.2,0.6-0.6,0.6H104V35
			c0,0.4-0.2,0.6-0.6,0.6h-2.6c-0.4,0-0.6-0.2-0.6-0.6V6c0-0.4,0.2-0.6,0.6-0.6h15C116.2,5.4,116.4,5.6,116.4,6z"/>
		<path class="st0" d="M133.2,35.7h-1c-1.3,0-2.1-1-2.3-2.7l0-0.4c-1.3,1.3-4.1,3.6-7.1,3.6c-4.4,0-6.7-2.2-6.8-6.5
			c0-4.3,3.2-6.6,8.9-6.6c1.4,0,3.1,0,4.7,0.1v-1.6c0-2.6-1.6-3.8-5.1-3.8c-2.1,0-3.7,0.6-5,1.2c-0.5,0.2-0.8,0.1-1.1-0.3l-0.8-1.5
			c-0.2-0.4-0.1-0.8,0.3-1c1.4-0.8,3.5-1.7,7-1.7c5,0,8.4,1.7,8.4,6.5v9.6c0,1.7,0.1,3,0.4,4.5C133.9,35.5,133.6,35.7,133.2,35.7z
			 M129.7,29.4v-3.4c-1.7,0-3.4-0.1-4.7-0.1c-3.7,0-5.1,1.5-5.1,3.6c0,1.9,1,3.2,3.6,3.2C126,32.8,128.4,30.7,129.7,29.4z"/>
		<path class="st0" d="M137.3,8.2c0-1.5,1.1-2.3,2.4-2.3c1.4,0,2.4,0.8,2.4,2.3c0,1.6-1.1,2.3-2.4,2.3
			C138.4,10.5,137.3,9.8,137.3,8.2z M137.9,15.4V35c0,0.4,0.2,0.6,0.6,0.6h2.5c0.4,0,0.6-0.2,0.6-0.6V15.4c0-0.4-0.2-0.6-0.6-0.6
			h-2.5C138.1,14.8,137.9,15,137.9,15.4z"/>
		<path class="st0" d="M156.8,15l0,2.9c0,0.4-0.2,0.5-0.6,0.6c-3.7,0.6-6.1,1.3-6.1,3.3V35c0,0.4-0.2,0.6-0.6,0.6h-2.5
			c-0.4,0-0.6-0.2-0.6-0.6V15.4c0-0.4,0.2-0.6,0.6-0.6h0.9c1.3,0,2.2,0.9,2.2,2.6v0.2c1.8-1.5,3.9-2.6,5.9-3.2
			C156.4,14.3,156.8,14.5,156.8,15z"/>
		<path class="st0" d="M172.3,5.7L172,7.3c-0.1,0.5-0.2,0.8-0.6,0.7c-1-0.3-2.2-0.6-3-0.6c-2.3,0-3.3,1-3.3,4.2v3.2h5
			c0.4,0,0.6,0.2,0.6,0.6v1.9c0,0.4-0.2,0.6-0.6,0.6h-5V35c0,0.4-0.2,0.6-0.6,0.6H162c-0.4,0-0.6-0.2-0.6-0.6V17.9h-2.2
			c-0.4,0-0.6-0.2-0.6-0.6v-1.6l2.8-0.7v-4.1c0-4.1,2.1-6.8,6.1-6.8c1.3,0,2.7,0.3,4.3,0.9C172,5.2,172.3,5.3,172.3,5.7z"/>
		<path class="st0" d="M188.4,35.7h-1c-1.3,0-2.1-1-2.3-2.7l0-0.4c-1.3,1.3-4.1,3.6-7.1,3.6c-4.4,0-6.7-2.2-6.8-6.5
			c0-4.3,3.2-6.6,8.9-6.6c1.4,0,3.1,0,4.7,0.1v-1.6c0-2.6-1.6-3.8-5.1-3.8c-2.1,0-3.7,0.6-5,1.2c-0.5,0.2-0.8,0.1-1.1-0.3l-0.8-1.5
			c-0.2-0.4-0.1-0.8,0.3-1c1.4-0.8,3.5-1.7,7-1.7c5,0,8.4,1.7,8.4,6.5v9.6c0,1.7,0.1,3,0.4,4.5C189.1,35.5,188.9,35.7,188.4,35.7z
			 M184.9,29.4v-3.4c-1.7,0-3.4-0.1-4.7-0.1c-3.7,0-5.1,1.5-5.1,3.6c0,1.9,1,3.2,3.6,3.2C181.2,32.8,183.6,30.7,184.9,29.4z"/>
		<path class="st0" d="M208.6,35.7h-2.8c-0.3,0-0.6-0.1-0.8-0.4l-4.9-7.3l-4.9,7.3c-0.2,0.3-0.4,0.4-0.7,0.4h-2.9
			c-0.5,0-0.7-0.3-0.4-0.8L198,25l-6.6-9.5c-0.2-0.4-0.1-0.8,0.5-0.8h2.8c0.3,0,0.6,0.1,0.8,0.4l4.8,7.2l4.6-7.2
			c0.2-0.3,0.4-0.4,0.8-0.4h2.8c0.5,0,0.7,0.3,0.4,0.8l-6.5,9.7l6.6,9.7C209.3,35.3,209.1,35.7,208.6,35.7z"/>
		<path class="st0" d="M237.7,33c-2.1,1.6-5.5,3.1-9,3.1c-8.1,0-12.9-5-12.9-15.5S220.6,5,228.7,5c3.1,0,5.8,0.6,7.9,2.1
			c0.2,0.2,0.3,0.5,0.2,0.8l-1.2,2.1c-0.2,0.4-0.7,0.4-1.1,0.2c-1.6-1-3.5-1.7-5.8-1.7c-5.5,0-8.8,4.4-8.8,12.1s3.2,12.1,8.8,12.1
			c2.7,0,5.2-1.3,6.9-2.4c0.4-0.3,0.9-0.3,1.1,0.1l1.2,1.9C238,32.5,238,32.8,237.7,33z"/>
		<path class="st0" d="M239.1,25.2c0-7.9,4.3-10.9,10.3-10.9c6,0,10.3,3.2,10.3,10.9c0,7-4.3,10.8-10.3,10.8
			C243.4,36.1,239.1,32.3,239.1,25.2z M255.9,25.2c0-5.5-2.5-7.6-6.5-7.6c-4,0-6.5,2.1-6.5,7.6c0,5.4,2.5,7.6,6.5,7.6
			C253.4,32.8,255.9,30.7,255.9,25.2z"/>
		<path class="st0" d="M279.9,35.7h-1c-1.3,0-2.1-1-2.3-2.7v-0.2c-1.5,1.5-4,3.3-7.2,3.3c-4.4,0-6.9-2.4-6.9-8.2V15.4
			c0-0.4,0.2-0.6,0.6-0.6h2.5c0.4,0,0.6,0.2,0.6,0.6v10.4c0,5.2,1,7,4.9,7c2.2,0,4-1.4,5.2-2.8V15.4c0-0.4,0.2-0.6,0.6-0.6h2.5
			c0.4,0,0.6,0.2,0.6,0.6v15.1c0,1.7,0.1,3,0.4,4.5C280.6,35.5,280.3,35.7,279.9,35.7z"/>
		<path class="st0" d="M302.3,22.5V35c0,0.4-0.2,0.6-0.6,0.6h-2.5c-0.4,0-0.6-0.2-0.6-0.6V24.2c0-4.2-0.6-6.5-4.6-6.5
			c-2.6,0-4.6,1.8-5.9,3.2V35c0,0.4-0.2,0.6-0.6,0.6H285c-0.4,0-0.6-0.2-0.6-0.6V15.4c0-0.4,0.2-0.6,0.6-0.6h0.9
			c1.3,0,2.2,0.9,2.2,2.6v0.4c1.4-1.5,3.8-3.4,7.1-3.4C299.5,14.4,302.3,16.2,302.3,22.5z"/>
		<path class="st0" d="M316.6,35.2c-1.6,0.6-3.4,0.8-4.7,0.8c-3.9,0-5.2-2.2-5.2-6.3V17.9h-2.1c-0.4,0-0.6-0.2-0.6-0.6v-1.5l2.7-0.7
			v-3c0-0.4,0.1-0.8,0.5-1l2.5-1.2c0.4-0.2,0.7,0,0.7,0.5v4.5h5c0.4,0,0.6,0.2,0.6,0.6v1.8c0,0.4-0.2,0.6-0.6,0.6h-5v10.8
			c0,3.2,0.6,4.2,2.7,4.2c1,0,2.1-0.2,3.1-0.5c0.4-0.1,0.5,0.2,0.6,0.7l0.3,1.6C317.2,34.9,316.9,35.1,316.6,35.2z"/>
		<path class="st0" d="M337.7,15.5l-11.1,30c-0.2,0.5-0.5,0.7-0.9,0.7h-2.3c-0.4,0-0.6-0.2-0.5-0.7l3.7-9.8H326
			c-0.4,0-0.6-0.2-0.7-0.5l-7-19.7c-0.1-0.4,0-0.7,0.5-0.7h2.8c0.4,0,0.6,0.2,0.7,0.5l5.6,16.5l5.8-16.4c0.1-0.4,0.3-0.6,0.7-0.6
			h2.7C337.6,14.8,337.9,15,337.7,15.5z"/>
	</g>
	<g>
		<path class="st0" d="M105.8,44.1c3.9,0,6.3,1.7,6.3,5c0,3.3-2.5,5.1-5.9,5.1h-3.8v8.2h-2.2V44.1H105.8z M106.2,52.2
			c2.2,0,3.6-1.1,3.6-3s-1.3-3-3.6-3h-3.8v6.1L106.2,52.2L106.2,52.2z"/>
		<path class="st0" d="M118.2,44.1v11c0,3.6,1.6,5.7,4.7,5.7s4.7-2.1,4.7-5.6V44.1h2.2v11.4c0,4.5-2.4,7.4-6.9,7.4S116,60,116,55.5
			V44.1H118.2z"/>
		<path class="st0" d="M140.4,44.1c3.7,0,6.1,1.6,6.1,4.5c0,2.1-1.2,3.5-3.2,4.1v0.1c2.4,0.2,4.1,2.1,4.1,4.5c0,3.5-2.9,5.1-7.1,5.1
			h-5.5V44.1H140.4z M140.1,51.9c2.7,0,4.1-0.9,4.1-3c0-1.8-1.3-2.8-3.8-2.8H137v5.7H140.1z M140.7,60.4c2.3,0,4.3-1.1,4.3-3.2
			c0-2.2-1.7-3.3-4.3-3.3H137v6.5H140.7z"/>
		<path class="st0" d="M153.8,44.1v16.3h8.4v2h-10.6V44.1H153.8z"/>
		<path class="st0" d="M167.2,44.1v18.3H165V44.1H167.2z"/>
		<path class="st0" d="M187,46.5l-1.9,1.4c-1.1-1.5-2.8-2.2-4.6-2.2c-4,0-7,3.5-7,7.6c0,4.2,2.8,7.6,7,7.6c2.2,0,4-0.9,5.3-2.6
			l1.6,1.4c-1.6,2.2-4,3.2-6.9,3.2c-5.4,0-9.3-4.2-9.3-9.6s3.9-9.6,9.3-9.6C183.3,43.6,185.6,44.7,187,46.5z"/>
		<path class="st0" d="M209.1,45.8l-1.8,1.6c-0.7-1.2-2-1.7-3.3-1.7c-2.3,0-3.9,1.2-3.9,3.1c0,1.8,1.2,2.6,3.9,3.4
			c4.2,1.2,5.4,2.8,5.4,5.4c0,3.3-2.7,5.3-6.4,5.3c-2.5,0-4.6-1-5.6-2.5l1.9-1.5c0.8,1.3,2.3,2,3.9,2c2,0,4-1.3,4-3.2
			c0-2.5-2-2.7-5-3.8c-3.1-1.1-4.3-2.6-4.3-5c0-3.2,2.6-5.3,6.2-5.3C206.1,43.6,207.8,44.2,209.1,45.8z"/>
		<path class="st0" d="M228.3,46.5l-1.9,1.4c-1.1-1.5-2.8-2.2-4.6-2.2c-4,0-7,3.5-7,7.6c0,4.2,2.8,7.6,7,7.6c2.2,0,4-0.9,5.3-2.6
			l1.6,1.4c-1.6,2.2-4,3.2-6.9,3.2c-5.4,0-9.3-4.2-9.3-9.6s3.9-9.6,9.3-9.6C224.6,43.6,226.9,44.7,228.3,46.5z"/>
		<path class="st0" d="M234.4,44.1v7.8h9.8v-7.8h2.2v18.3h-2.2v-8.5h-9.8v8.5h-2.2V44.1H234.4z"/>
		<path class="st0" d="M269.5,53.2c0,5.5-4,9.6-9.6,9.6c-5.6,0-9.6-4.1-9.6-9.6s4-9.6,9.6-9.6C265.6,43.6,269.5,47.8,269.5,53.2z
			 M260,60.8c4.2,0,7.2-3.3,7.2-7.6c0-4.3-3-7.6-7.3-7.6c-4.2,0-7.2,3.3-7.2,7.6C252.7,57.5,255.7,60.8,260,60.8z"/>
		<path class="st0" d="M291.6,53.2c0,5.5-4,9.6-9.6,9.6c-5.6,0-9.6-4.1-9.6-9.6s4-9.6,9.6-9.6C287.6,43.6,291.6,47.8,291.6,53.2z
			 M282,60.8c4.2,0,7.2-3.3,7.2-7.6c0-4.3-3-7.6-7.3-7.6c-4.2,0-7.2,3.3-7.2,7.6C274.8,57.5,277.8,60.8,282,60.8z"/>
		<path class="st0" d="M297.8,44.1v16.3h8.4v2h-10.5V44.1H297.8z"/>
		<path class="st0" d="M319.5,45.8l-1.8,1.6c-0.7-1.2-2-1.7-3.3-1.7c-2.3,0-3.9,1.2-3.9,3.1c0,1.8,1.2,2.6,3.9,3.4
			c4.2,1.2,5.4,2.8,5.4,5.4c0,3.3-2.7,5.3-6.4,5.3c-2.5,0-4.6-1-5.6-2.5l1.9-1.5c0.8,1.3,2.3,2,3.9,2c2,0,4-1.3,4-3.2
			c0-2.5-2-2.7-5-3.8c-3.1-1.1-4.3-2.6-4.3-5c0-3.2,2.6-5.3,6.2-5.3C316.4,43.6,318.1,44.2,319.5,45.8z"/>
	</g>
	<g>
		<path class="st1" d="M106.7,72.8V74h-5.4v3.3h5v1.2h-5v3.8h5.6v1.2h-6.9V72.8H106.7z"/>
		<path class="st1" d="M111.4,72.8l6.1,8.8h0v-8.8h1.2v10.5h-1.6l-6.1-8.8h0v8.8h-1.2V72.8H111.4z"/>
		<path class="st1" d="M131.2,73.9l-0.9,1c-0.7-0.8-1.8-1.2-2.9-1.2c-2.4,0-4.2,1.9-4.2,4.4c0,2.5,1.8,4.4,4.4,4.4
			c0.9,0,1.9-0.2,2.6-0.6v-3.2h-2.4v-1.2h3.7v5.2c-1.2,0.7-2.6,1-3.9,1c-3.3,0-5.6-2.3-5.6-5.5c0-3.2,2.4-5.5,5.7-5.5
			C129,72.5,130.2,73,131.2,73.9z"/>
		<path class="st1" d="M139.5,72.8l4.5,10.5h-1.5l-1.1-2.6h-5.3l-1.1,2.6h-1.4l4.6-10.5H139.5z M138.9,74.4l-2.2,5.2h4.3L138.9,74.4
			L138.9,74.4z"/>
		<path class="st1" d="M155.1,73.9l-0.9,1c-0.7-0.8-1.8-1.2-2.9-1.2c-2.4,0-4.2,1.9-4.2,4.4c0,2.5,1.8,4.4,4.4,4.4
			c0.9,0,1.9-0.2,2.6-0.6v-3.2h-2.4v-1.2h3.7v5.2c-1.2,0.7-2.6,1-3.9,1c-3.3,0-5.6-2.3-5.6-5.5c0-3.2,2.4-5.5,5.7-5.5
			C152.9,72.5,154.2,73,155.1,73.9z"/>
		<path class="st1" d="M165.5,72.8V74h-5.4v3.3h5v1.2h-5v3.8h5.6v1.2h-6.9V72.8H165.5z"/>
		<path class="st0" d="M178.7,78.1c0,1.4-1.2,2.6-2.6,2.6s-2.6-1.2-2.6-2.6s1.2-2.6,2.6-2.6C177.5,75.4,178.7,76.6,178.7,78.1z"/>
		<path class="st1" d="M188.4,72.8v10.5h-1.2V72.8H188.4z"/>
		<path class="st1" d="M193.5,72.8l6.1,8.8h0v-8.8h1.2v10.5h-1.6l-6.1-8.8h0v8.8h-1.2V72.8H193.5z"/>
		<path class="st1" d="M210.5,73.8l-1,0.9c-0.4-0.7-1.2-1-1.9-1c-1.3,0-2.2,0.7-2.2,1.8c0,1,0.7,1.5,2.3,1.9
			c2.4,0.7,3.1,1.6,3.1,3.1c0,1.9-1.6,3.1-3.7,3.1c-1.4,0-2.6-0.6-3.2-1.5l1.1-0.9c0.5,0.8,1.3,1.2,2.2,1.2c1.2,0,2.3-0.7,2.3-1.8
			c0-1.4-1.1-1.6-2.9-2.2c-1.8-0.6-2.5-1.5-2.5-2.9c0-1.8,1.5-3,3.6-3C208.7,72.5,209.7,72.8,210.5,73.8z"/>
		<path class="st1" d="M216.9,72.8c2.2,0,3.6,1,3.6,2.9c0,1.9-1.4,2.9-3.4,2.9h-2.2v4.7h-1.2V72.8H216.9z M217.1,77.4
			c1.3,0,2.1-0.7,2.1-1.7s-0.8-1.7-2.1-1.7h-2.2v3.5L217.1,77.4L217.1,77.4z"/>
		<path class="st1" d="M224.7,72.8v10.5h-1.2V72.8H224.7z"/>
		<path class="st1" d="M231.1,72.8c3,0,4,1,4,2.9c0,1.5-0.9,2.5-2.6,2.8l3,4.9H234l-2.9-4.7h-1.6v4.7h-1.2V72.8H231.1z M231,77.4
			c2.3,0,2.8-0.7,2.8-1.7c0-1.2-0.8-1.7-2.5-1.7h-1.8v3.5L231,77.4L231,77.4z"/>
		<path class="st1" d="M244.9,72.8V74h-5.4v3.3h5v1.2h-5v3.8h5.6v1.2h-6.9V72.8H244.9z"/>
		<path class="st0" d="M258.2,78.1c0,1.4-1.2,2.6-2.6,2.6c-1.4,0-2.6-1.2-2.6-2.6s1.2-2.6,2.6-2.6C257,75.4,258.2,76.6,258.2,78.1z"
			/>
		<path class="st1" d="M273.7,72.8V74h-3.5v9.4h-1.2V74h-3.5v-1.2H273.7z"/>
		<path class="st1" d="M277.3,72.8v4.5h5.6v-4.5h1.2v10.5H283v-4.9h-5.6v4.9h-1.2V72.8H277.3z"/>
		<path class="st1" d="M290.6,72.8c3,0,4,1,4,2.9c0,1.5-0.9,2.5-2.6,2.8l3,4.9h-1.5l-2.9-4.7H289v4.7h-1.2V72.8H290.6z M290.5,77.4
			c2.3,0,2.8-0.7,2.8-1.7c0-1.2-0.8-1.7-2.5-1.7H289v3.5L290.5,77.4L290.5,77.4z"/>
		<path class="st1" d="M299.1,72.8v10.5h-1.2V72.8H299.1z"/>
		<path class="st1" d="M302.6,72.8l3.2,8.7h0l3.4-8.7h1.3l-4.1,10.5h-1.2l-4-10.5H302.6z"/>
		<path class="st1" d="M319.3,72.8V74h-5.4v3.3h5v1.2h-5v3.8h5.6v1.2h-6.9V72.8H319.3z"/>
		<path d="M330.2,81.1c0,1.7-1.4,3-3,3s-3-1.3-3-3c0-1.7,1.4-3,3-3C328.8,78.1,330.2,79.4,330.2,81.1z M327.1,83.7
			c1.4,0,2.5-1.2,2.5-2.6c0-1.4-1-2.6-2.5-2.6c-1.4,0-2.5,1.1-2.5,2.6C324.6,82.5,325.7,83.7,327.1,83.7z M327.4,79.3
			c0.8,0,1.2,0.3,1.2,1c0,0.6-0.3,0.9-0.9,1l1,1.6h-0.6l-1-1.5h-0.6v1.5H326v-3.6H327.4z M327.2,80.9c0.7,0,0.8-0.2,0.8-0.6
			c0-0.4-0.2-0.6-0.8-0.6h-0.7v1.1L327.2,80.9L327.2,80.9z"/>
	</g>
	<g>
		<path class="st2" d="M68.6,72.3c2.3,0.1,4.9,0.3,7.4,0.7l-5.5-10.5c-2-0.1-10.2,0.9-13.7,2.2c-6.5,2.2-12.2,8.7-12.2,9.8V79
			c0.1-0.2,0.2-0.3,0.4-0.5c0.6-0.7,1.2-1.3,1.9-1.8c4.1-3.1,9.3-4,14.2-4.3C63.5,72.2,66,72.2,68.6,72.3"/>
		<path class="st2" d="M18.4,72.3c-2.3,0.1-4.9,0.3-7.4,0.7l5.5-10.5c2-0.1,10.2,0.9,13.7,2.2c6.5,2.2,12.2,8.7,12.2,9.8V79
			c-0.1-0.2-0.2-0.3-0.4-0.5c-0.6-0.7-1.2-1.3-1.9-1.8c-4.1-3.1-9.3-4-14.2-4.3C23.5,72.2,20.9,72.2,18.4,72.3"/>
		<polygon class="st3" points="67.6,33.2 73.2,38.1 79.6,34.2 76.7,41.1 82.4,46 74.9,45.3 72,52.2 70.3,44.9 62.9,44.3 69.3,40.4 
					"/>
		<polygon class="st3" points="26.2,8.9 26.2,14.5 31.6,16.3 26.2,18 26.2,23.6 22.9,19.1 17.6,20.8 20.9,16.2 17.6,11.7 22.9,13.4 
					"/>
		<polygon class="st3" points="83.1,14.7 83.1,18.9 87.1,20.2 83,21.5 83,25.7 80.6,22.3 76.5,23.5 79,20.2 76.6,16.7 80.6,18.1 		
			"/>
		<path class="st2" d="M39.1,45.7c3.9-8,11.7-9.6,15.2-21.4c3.4-11.8-3.8-18.8-3.8-18.8c1.4,13-1.8,14.5-12.2,21.9
			c-16.1,11.4-9.5,24.9-1.7,32.1C36.9,53.9,37.4,49.2,39.1,45.7"/>
		<path class="st3" d="M57.6,25.3c-0.6,3.2-4,9-10.3,15c-9.8,9.3-8.3,16.9-7.6,22.3c-0.2-1.1,0.6-3.4,0.9-4.4c2.2-6.2,3.3-6.9,8-11
			C54.6,42,60.2,35.4,57.6,25.3"/>
		<path class="st0" d="M55.4,42.1c-0.2,2.2-2.6,6.1-7.3,10c-7.4,6.1-6.6,13-4.5,16.1C46,54,60.6,53.5,55.4,42.1"/>
		<path class="st0" d="M77.3,66.7l-2.5-0.4l5.3,10.1l-2.4-0.4c-3.4-0.6-6.4-1.1-9.2-1.3c-3.6-0.3-6.5-0.2-9.2,0.1
			c-3.4,0.4-6.3,1.2-8.7,2.4c-1.4,0.7-2.5,1.7-3.6,2.6c-1.1,0.9-2.3,1.4-3.5,1.3c0,0,0,0,0,0l0,0c0,0,0,0,0,0c0,0,0,0,0,0l0,0
			c0,0,0,0,0,0c-1.2,0-2.4-0.4-3.5-1.3c-1.1-0.9-2.2-1.9-3.6-2.6c-2.4-1.2-5.3-2-8.7-2.4c-2.7-0.3-5.6-0.3-9.2-0.1
			c-2.7,0.2-5.7,0.6-9.2,1.3l-2.4,0.4l5.3-10.1l-2.5,0.4L0,81.5c1.6-0.3,3.5-0.7,5.4-1.2c6.3-1.4,14-3.3,23-2.9
			c4.7,0.2,8.3,1.4,10.3,3.2c1.3,1.2,2,2.6,4.8,2.8l0,0h0l0,0c0,0,0,0,0,0c0,0,0,0,0,0l0,0h0l0,0c2.8-0.2,3.4-1.6,4.8-2.8
			c2-1.8,5.6-3,10.3-3.2c9-0.4,16.7,1.5,23,2.9c1.9,0.4,3.8,0.9,5.4,1.2L77.3,66.7z"/>
	</g>
</g>
</svg>
